name rise32.9588peak41.5061fall63.4684.mot
datacolumns 19
datarows 23
range 12.52661900000000 12.56328600000000
endheader
time	ground_force1_vx	ground_force1_vy	ground_force1_vz	ground_force1_px	ground_force1_py	ground_force1_pz	ground_force2_vx	ground_force2_vy	ground_force2_vz	ground_force2_px	ground_force2_py	ground_force2_pz	ground_torque1_x	ground_torque1_y	ground_torque1_z	ground_torque2_x	ground_torque2_y	ground_torque2_z	
12.52661900000000	-9.84295400000000	46.34628300000000	-11.42390900000000	0.31334600000000	0.00000000000000	0.09632500000000	-38.52010600000000	786.73230899999999	-46.66874000000000	0.12071800000000	0.00000000000000	-0.06902800000000	0.00000000000000	-6.69177900000000	0.00000000000000	0.00000000000000	-15.33033100000000	0.00000000000000	
12.52828500000000	-10.69286000000000	53.00524600000000	-12.56836100000000	0.31673300000000	0.00000000000000	0.09703600000000	-38.82568500000000	783.98973999999998	-46.30286900000000	0.12011600000000	0.00000000000000	-0.06892000000000	0.00000000000000	-7.42062700000000	0.00000000000000	0.00000000000000	-15.21273800000000	0.00000000000000	
12.52995500000000	-11.38578400000000	59.60550700000000	-13.56994200000000	0.31986800000000	0.00000000000000	0.09770000000000	-39.14680300000000	781.16316800000004	-45.92465500000000	0.11951800000000	0.00000000000000	-0.06881000000000	0.00000000000000	-8.07517800000000	0.00000000000000	0.00000000000000	-15.09697000000000	0.00000000000000	
12.53161700000000	-11.90684700000000	66.08100899999999	-14.41111700000000	0.32278400000000	0.00000000000000	0.09832400000000	-39.48403500000000	778.25157999999999	-45.53435500000000	0.11892300000000	0.00000000000000	-0.06869700000000	0.00000000000000	-8.64391900000000	0.00000000000000	0.00000000000000	-14.98319100000000	0.00000000000000	
12.53328700000000	-12.25001000000000	72.39092800000000	-15.08357000000000	0.32550600000000	0.00000000000000	0.09891200000000	-39.83788500000000	775.25382000000002	-45.13222600000000	0.11833200000000	0.00000000000000	-0.06858100000000	0.00000000000000	-9.12071500000000	0.00000000000000	0.00000000000000	-14.87155500000000	0.00000000000000	
12.53495300000000	-12.41733500000000	78.51914300000000	-15.58753800000000	0.32805700000000	0.00000000000000	0.09946800000000	-40.20878000000000	772.16858600000000	-44.71852700000000	0.11774400000000	0.00000000000000	-0.06846300000000	0.00000000000000	-9.50450700000000	0.00000000000000	0.00000000000000	-14.76220300000000	0.00000000000000	
12.53662300000000	-12.41771700000000	84.47176600000000	-15.93055700000000	0.33045500000000	0.00000000000000	0.09999600000000	-40.59706800000000	768.99443599999995	-44.29351000000000	0.11716100000000	0.00000000000000	-0.06834200000000	0.00000000000000	-9.79865200000000	0.00000000000000	0.00000000000000	-14.65526000000000	0.00000000000000	
12.53828500000000	-12.26527400000000	90.27325900000000	-16.12582700000000	0.33271500000000	0.00000000000000	0.10049900000000	-41.00301100000000	765.72979199999997	-43.85742800000000	0.11658100000000	0.00000000000000	-0.06821900000000	0.00000000000000	-10.01000500000000	0.00000000000000	0.00000000000000	-14.55083900000000	0.00000000000000	
12.53995000000000	-11.97759000000000	95.96171600000000	-16.19039400000000	0.33485100000000	0.00000000000000	0.10097900000000	-41.42678400000000	762.37294099999997	-43.41052700000000	0.11600400000000	0.00000000000000	-0.06809300000000	0.00000000000000	-10.14787100000000	0.00000000000000	0.00000000000000	-14.44903600000000	0.00000000000000	
12.54162000000000	-11.57398500000000	101.58384700000001	-16.14333400000000	0.33687300000000	0.00000000000000	0.10143800000000	-41.86846800000000	758.92204800000002	-42.95305400000000	0.11543200000000	0.00000000000000	-0.06796500000000	0.00000000000000	-10.22294100000000	0.00000000000000	0.00000000000000	-14.34993300000000	0.00000000000000	
12.54329000000000	-11.07393400000000	107.19011200000000	-16.00408600000000	0.33879100000000	0.00000000000000	0.10187900000000	-42.32804900000000	755.37515299999995	-42.48524600000000	0.11486300000000	0.00000000000000	-0.06783400000000	0.00000000000000	-10.24629300000000	0.00000000000000	0.00000000000000	-14.25359500000000	0.00000000000000	
12.54495700000000	-10.49576000000000	112.83038200000000	-15.79104400000000	0.34061400000000	0.00000000000000	0.10230200000000	-42.80541000000000	751.73018900000000	-42.00733900000000	0.11429900000000	0.00000000000000	-0.06770100000000	0.00000000000000	-10.22853300000000	0.00000000000000	0.00000000000000	-14.16007100000000	0.00000000000000	
12.54662400000000	-9.85562500000000	118.55036400000000	-15.52046400000000	0.34234800000000	0.00000000000000	0.10271000000000	-43.30033300000000	747.98498300000006	-41.51956200000000	0.11373800000000	0.00000000000000	-0.06756600000000	0.00000000000000	-10.17911700000000	0.00000000000000	0.00000000000000	-14.06939200000000	0.00000000000000	
12.54828300000000	-9.16687900000000	124.38894400000000	-15.20573500000000	0.34399900000000	0.00000000000000	0.10310300000000	-43.81249300000000	744.13726599999995	-41.02214000000000	0.11318000000000	0.00000000000000	-0.06742800000000	0.00000000000000	-10.10588400000000	0.00000000000000	0.00000000000000	-13.98157200000000	0.00000000000000	
12.54995000000000	-8.43972200000000	130.37647600000000	-14.85698100000000	0.34557200000000	0.00000000000000	0.10348200000000	-44.34145900000000	740.18468800000005	-40.51529400000000	0.11262700000000	0.00000000000000	-0.06728800000000	0.00000000000000	-10.01478900000000	0.00000000000000	0.00000000000000	-13.89660800000000	0.00000000000000	
12.55162000000000	-7.68116900000000	136.53398999999999	-14.48098800000000	0.34707300000000	0.00000000000000	0.10384800000000	-44.88668600000000	736.12482199999999	-39.99923800000000	0.11207700000000	0.00000000000000	-0.06714700000000	0.00000000000000	-9.90982200000000	0.00000000000000	0.00000000000000	-13.81447800000000	0.00000000000000	
12.55329000000000	-6.89526300000000	142.87320199999999	-14.08139000000000	0.34850400000000	0.00000000000000	0.10420300000000	-45.44752000000000	731.95518300000003	-39.47418200000000	0.11153200000000	0.00000000000000	-0.06700300000000	0.00000000000000	-9.79310100000000	0.00000000000000	0.00000000000000	-13.73514300000000	0.00000000000000	
12.55495100000000	-6.08346500000000	149.39718500000001	-13.65905800000000	0.34986900000000	0.00000000000000	0.10454600000000	-46.02319200000000	727.67323099999999	-38.94033400000000	0.11099000000000	0.00000000000000	-0.06685700000000	0.00000000000000	-9.66507800000000	0.00000000000000	0.00000000000000	-13.65854500000000	0.00000000000000	
12.55661800000000	-5.24517200000000	156.10151999999999	-13.21262000000000	0.35117000000000	0.00000000000000	0.10487900000000	-46.61282100000000	723.27639399999998	-38.39789700000000	0.11045100000000	0.00000000000000	-0.06670900000000	0.00000000000000	-9.52484000000000	0.00000000000000	0.00000000000000	-13.58461000000000	0.00000000000000	
12.55828900000000	-4.37828800000000	162.97576900000001	-12.73905800000000	0.35241100000000	0.00000000000000	0.10520100000000	-47.21540900000000	718.76207399999998	-37.84706900000000	0.10991600000000	0.00000000000000	-0.06655900000000	0.00000000000000	-9.37045600000000	0.00000000000000	0.00000000000000	-13.51324200000000	0.00000000000000	
12.55996500000000	-3.47980900000000	170.00508099999999	-12.23431900000000	0.35359300000000	0.00000000000000	0.10551400000000	-47.82984700000000	714.12766499999998	-37.28804900000000	0.10938500000000	0.00000000000000	-0.06640700000000	0.00000000000000	-9.19934300000000	0.00000000000000	0.00000000000000	-13.44433200000000	0.00000000000000	
12.56162700000000	-2.54636400000000	177.17180200000001	-11.69388800000000	0.35471700000000	0.00000000000000	0.10581700000000	-48.45491400000000	709.37056800000005	-36.72103200000000	0.10885700000000	0.00000000000000	-0.06625300000000	0.00000000000000	-9.00860700000000	0.00000000000000	0.00000000000000	-13.37775100000000	0.00000000000000	
12.56328600000000	-1.57468500000000	184.45696500000000	-11.11329600000000	0.35578500000000	0.00000000000000	0.10611200000000	-49.08927600000000	704.48820699999999	-36.14621300000000	0.10833200000000	0.00000000000000	-0.06609800000000	0.00000000000000	-8.79535900000000	0.00000000000000	0.00000000000000	-13.31335100000000	0.00000000000000	
